<svg width="159" height="42" viewBox="0 0 159 42" fill="none" xmlns="http://www.w3.org/2000/svg">
<circle cx="138" cy="21" r="21" fill="#D1CDB7"/>
<path d="M148.5 14.8352C147.719 15.1595 146.887 15.3745 146.019 15.4789C146.912 14.9744 147.593 14.1816 147.913 13.226C147.081 13.6958 146.162 14.0275 145.183 14.2127C144.393 13.4162 143.267 12.9229 142.039 12.9229C139.655 12.9229 137.736 14.7544 137.736 16.9998C137.736 17.3229 137.765 17.6336 137.836 17.9293C134.257 17.764 131.09 16.14 128.962 13.6659C128.591 14.276 128.373 14.9744 128.373 15.7262C128.373 17.1378 129.141 18.3891 130.285 19.1135C129.593 19.1011 128.915 18.911 128.34 18.6115C128.34 18.6239 128.34 18.6401 128.34 18.6562C128.34 20.6369 129.832 22.2821 131.789 22.6611C131.439 22.7518 131.057 22.7953 130.661 22.7953C130.385 22.7953 130.107 22.7804 129.845 22.7258C130.403 24.3399 131.986 25.5266 133.868 25.5651C132.404 26.6499 130.544 27.3035 128.53 27.3035C128.177 27.3035 127.839 27.2886 127.5 27.2476C129.407 28.4119 131.667 29.0767 134.105 29.0767C142.027 29.0767 146.358 22.8637 146.358 17.4782C146.358 17.2981 146.351 17.1241 146.342 16.9514C147.197 16.3773 147.915 15.6603 148.5 14.8352Z" fill="#1A472A"/>
<circle cx="78" cy="21" r="21" fill="#F2AC0D"/>
<path d="M69.9243 14.7993C69.9243 14.2554 70.1153 13.8067 70.4973 13.4532C70.8794 13.0996 71.376 12.9229 71.9872 12.9229C72.5875 12.9229 73.0732 13.0969 73.4443 13.445C73.8263 13.804 74.0174 14.2717 74.0174 14.8483C74.0174 15.3704 73.8318 15.8055 73.4607 16.1536C73.0787 16.5126 72.5766 16.6921 71.9545 16.6921H71.9381C71.3378 16.6921 70.8521 16.5126 70.481 16.1536C70.1099 15.7946 69.9243 15.3432 69.9243 14.7993ZM70.1372 29.0767V18.1769H73.7718V29.0767H70.1372ZM75.7855 29.0767H79.4202V22.9905C79.4202 22.6097 79.4638 22.316 79.5511 22.1093C79.7039 21.7395 79.9359 21.4267 80.247 21.1711C80.558 20.9155 80.9482 20.7877 81.4176 20.7877C82.64 20.7877 83.2512 21.6089 83.2512 23.2515V29.0767H86.8859V22.8273C86.8859 21.2173 86.5038 19.9963 85.7398 19.1641C84.9758 18.3319 83.9662 17.9159 82.711 17.9159C81.303 17.9159 80.206 18.5196 79.4202 19.727V19.7597H79.4038L79.4202 19.727V18.1769H75.7855C75.8074 18.525 75.8183 19.6074 75.8183 21.424C75.8183 23.2406 75.8074 25.7915 75.7855 29.0767Z" fill="#1A472A"/>
<path d="M42 21C42 9.40202 32.598 0 21 0C9.40202 0 0 9.40202 0 21C0 32.598 9.40202 42 21 42C32.598 42 42 32.598 42 21Z" fill="#00D95F" fill-opacity="0.75"/>
<path d="M10.5 30.7223L12.0067 25.12C10.7916 22.9376 10.4056 20.391 10.9194 17.9474C11.4332 15.5038 12.8125 13.3271 14.8041 11.8168C16.7957 10.3066 19.2661 9.56399 21.7619 9.72532C24.2577 9.88665 26.6115 10.9411 28.3914 12.6952C30.1713 14.4493 31.2579 16.7854 31.4518 19.2747C31.6456 21.7641 30.9339 24.2398 29.447 26.2475C27.9601 28.2551 25.7978 29.6602 23.357 30.2048C20.9162 30.7494 18.3606 30.3969 16.1591 29.2122L10.5 30.7223ZM16.4319 27.1158L16.7819 27.323C18.3765 28.2666 20.239 28.6571 22.0791 28.4336C23.9192 28.2101 25.6336 27.3852 26.9551 26.0874C28.2766 24.7896 29.1309 23.0919 29.385 21.2588C29.6391 19.4256 29.2786 17.56 28.3598 15.9528C27.4409 14.3455 26.0154 13.0868 24.3052 12.3728C22.595 11.6589 20.6963 11.5298 18.9049 12.0056C17.1136 12.4815 15.5302 13.5356 14.4016 15.0036C13.2729 16.4717 12.6624 18.2712 12.6651 20.1218C12.6637 21.6562 13.0887 23.161 13.8931 24.4686L14.1125 24.8298L13.2702 27.9567L16.4319 27.1158Z" fill="white"/>
<path fill-rule="evenodd" clip-rule="evenodd" d="M24.9269 21.5607C24.7217 21.3954 24.4815 21.2791 24.2245 21.2207C23.9675 21.1622 23.7005 21.163 23.4439 21.2231C23.0583 21.383 22.8092 21.987 22.5601 22.2891C22.5075 22.3615 22.4303 22.4122 22.3429 22.4319C22.2556 22.4515 22.164 22.4386 22.0855 22.3956C20.6739 21.8437 19.4907 20.8315 18.7281 19.5234C18.663 19.4418 18.6322 19.3382 18.6421 19.2344C18.6521 19.1305 18.7021 19.0346 18.7814 18.9668C19.0593 18.6921 19.2633 18.352 19.3746 17.9778C19.3993 17.565 19.3046 17.1539 19.1018 16.7934C18.9449 16.288 18.6465 15.8379 18.2417 15.4965C18.0328 15.4027 17.8013 15.3713 17.575 15.406C17.3487 15.4406 17.1373 15.5399 16.9663 15.6919C16.6693 15.9476 16.4337 16.2666 16.2766 16.6253C16.1195 16.984 16.0451 17.3733 16.0587 17.7646C16.0596 17.9843 16.0875 18.2031 16.1417 18.416C16.2795 18.9276 16.4913 19.4164 16.7705 19.8669C16.972 20.212 17.1918 20.5461 17.429 20.8678C18.1998 21.9243 19.1688 22.8213 20.2822 23.509C20.8409 23.8585 21.438 24.1427 22.0618 24.3559C22.7097 24.6491 23.4251 24.7616 24.132 24.6816C24.5347 24.6207 24.9163 24.462 25.2432 24.2193C25.5701 23.9766 25.8322 23.6574 26.0065 23.2899C26.1089 23.0679 26.14 22.8196 26.0954 22.5793C25.9887 22.0877 25.3302 21.7975 24.9269 21.5607Z" fill="white"/>
</svg>
